<mxfile host="app.diagrams.net" modified="2024-02-29T18:31:10.707Z" agent="Mozilla/5.0 (X11; Linux x86_64) AppleWebKit/537.36 (KHTML, like Gecko) Chrome/122.0.0.0 Safari/537.36" version="23.1.8" etag="0Bhzmsvmd8SZgrELWduL" type="github">
  <diagram name="Page-1" id="-mzQsVBuCQNDlAnk5nVw">
    <mxGraphModel>
      <root>
        <mxCell id="0" />
        <mxCell id="1" parent="0" />
      </root>
    </mxGraphModel>
  </diagram>
</mxfile>
